<svg id="container" width="975.21875" xmlns="http://www.w3.org/2000/svg" class="erDiagram" height="272.5" viewBox="0 0 975.21875 272.5" role="graphics-document document" aria-roledescription="er"><style>#container{font-family:"trebuchet ms",verdana,arial,sans-serif;font-size:16px;fill:#333;}@keyframes edge-animation-frame{from{stroke-dashoffset:0;}}@keyframes dash{to{stroke-dashoffset:0;}}#container .edge-animation-slow{stroke-dasharray:9,5!important;stroke-dashoffset:900;animation:dash 50s linear infinite;stroke-linecap:round;}#container .edge-animation-fast{stroke-dasharray:9,5!important;stroke-dashoffset:900;animation:dash 20s linear infinite;stroke-linecap:round;}#container .error-icon{fill:#552222;}#container .error-text{fill:#552222;stroke:#552222;}#container .edge-thickness-normal{stroke-width:1px;}#container .edge-thickness-thick{stroke-width:3.5px;}#container .edge-pattern-solid{stroke-dasharray:0;}#container .edge-thickness-invisible{stroke-width:0;fill:none;}#container .edge-pattern-dashed{stroke-dasharray:3;}#container .edge-pattern-dotted{stroke-dasharray:2;}#container .marker{fill:#333333;stroke:#333333;}#container .marker.cross{stroke:#333333;}#container svg{font-family:"trebuchet ms",verdana,arial,sans-serif;font-size:16px;}#container p{margin:0;}#container .entityBox{fill:#ECECFF;stroke:#9370DB;}#container .relationshipLabelBox{fill:hsl(80, 100%, 96.2745098039%);opacity:0.7;background-color:hsl(80, 100%, 96.2745098039%);}#container .relationshipLabelBox rect{opacity:0.5;}#container .labelBkg{background-color:rgba(248.6666666666, 255, 235.9999999999, 0.5);}#container .edgeLabel .label{fill:#9370DB;font-size:14px;}#container .label{font-family:"trebuchet ms",verdana,arial,sans-serif;color:#333;}#container .edge-pattern-dashed{stroke-dasharray:8,8;}#container .node rect,#container .node circle,#container .node ellipse,#container .node polygon{fill:#ECECFF;stroke:#9370DB;stroke-width:1px;}#container .relationshipLine{stroke:#333333;stroke-width:1;fill:none;}#container .marker{fill:none!important;stroke:#333333!important;stroke-width:1;}#container :root{--mermaid-font-family:"trebuchet ms",verdana,arial,sans-serif;}</style><g><defs><marker id="container_er-onlyOneStart" class="marker onlyOne er" refX="0" refY="9" markerWidth="18" markerHeight="18" orient="auto"><path d="M9,0 L9,18 M15,0 L15,18"></path></marker></defs><defs><marker id="container_er-onlyOneEnd" class="marker onlyOne er" refX="18" refY="9" markerWidth="18" markerHeight="18" orient="auto"><path d="M3,0 L3,18 M9,0 L9,18"></path></marker></defs><defs><marker id="container_er-zeroOrOneStart" class="marker zeroOrOne er" refX="0" refY="9" markerWidth="30" markerHeight="18" orient="auto"><circle fill="white" cx="21" cy="9" r="6"></circle><path d="M9,0 L9,18"></path></marker></defs><defs><marker id="container_er-zeroOrOneEnd" class="marker zeroOrOne er" refX="30" refY="9" markerWidth="30" markerHeight="18" orient="auto"><circle fill="white" cx="9" cy="9" r="6"></circle><path d="M21,0 L21,18"></path></marker></defs><defs><marker id="container_er-oneOrMoreStart" class="marker oneOrMore er" refX="18" refY="18" markerWidth="45" markerHeight="36" orient="auto"><path d="M0,18 Q 18,0 36,18 Q 18,36 0,18 M42,9 L42,27"></path></marker></defs><defs><marker id="container_er-oneOrMoreEnd" class="marker oneOrMore er" refX="27" refY="18" markerWidth="45" markerHeight="36" orient="auto"><path d="M3,9 L3,27 M9,18 Q27,0 45,18 Q27,36 9,18"></path></marker></defs><defs><marker id="container_er-zeroOrMoreStart" class="marker zeroOrMore er" refX="18" refY="18" markerWidth="57" markerHeight="36" orient="auto"><circle fill="white" cx="48" cy="18" r="6"></circle><path d="M0,18 Q18,0 36,18 Q18,36 0,18"></path></marker></defs><defs><marker id="container_er-zeroOrMoreEnd" class="marker zeroOrMore er" refX="39" refY="18" markerWidth="57" markerHeight="36" orient="auto"><circle fill="white" cx="9" cy="18" r="6"></circle><path d="M21,18 Q39,0 57,18 Q39,36 21,18"></path></marker></defs><g class="root"><g class="clusters"></g><g class="edgePaths"></g><g class="edgeLabels"></g><g class="nodes"><g class="node default" id="entity-VEHICLE-0" transform="translate(123.6328125, 136.25)"><g style=""><path d="M-115.6328125 -85.5 L115.6328125 -85.5 L115.6328125 85.5 L-115.6328125 85.5" stroke="none" stroke-width="0" fill="#ECECFF"></path><path d="M-115.6328125 -85.5 C-28.69071637955433 -85.5, 58.25137974089134 -85.5, 115.6328125 -85.5 M-115.6328125 -85.5 C-60.47639146375714 -85.5, -5.319970427514278 -85.5, 115.6328125 -85.5 M115.6328125 -85.5 C115.6328125 -25.60627433639997, 115.6328125 34.28745132720006, 115.6328125 85.5 M115.6328125 -85.5 C115.6328125 -50.97800405927115, 115.6328125 -16.4560081185423, 115.6328125 85.5 M115.6328125 85.5 C47.47220337542595 85.5, -20.688405749148103 85.5, -115.6328125 85.5 M115.6328125 85.5 C66.48995562765018 85.5, 17.34709875530035 85.5, -115.6328125 85.5 M-115.6328125 85.5 C-115.6328125 37.204627592960406, -115.6328125 -11.090744814079187, -115.6328125 -85.5 M-115.6328125 85.5 C-115.6328125 18.23129607977353, -115.6328125 -49.03740784045294, -115.6328125 -85.5" stroke="#9370DB" stroke-width="1.3" fill="none" stroke-dasharray="0 0"></path></g><g style="" class="row-rect-odd"><path d="M-115.6328125 -42.75 L115.6328125 -42.75 L115.6328125 0 L-115.6328125 0" stroke="none" stroke-width="0" fill="hsl(240, 100%, 100%)"></path><path d="M-115.6328125 -42.75 C-37.98741845293617 -42.75, 39.65797559412766 -42.75, 115.6328125 -42.75 M-115.6328125 -42.75 C-66.11480402219021 -42.75, -16.596795544380427 -42.75, 115.6328125 -42.75 M115.6328125 -42.75 C115.6328125 -32.288495643187744, 115.6328125 -21.826991286375485, 115.6328125 0 M115.6328125 -42.75 C115.6328125 -32.39550604517084, 115.6328125 -22.04101209034168, 115.6328125 0 M115.6328125 0 C63.1692801472958 0, 10.705747794591602 0, -115.6328125 0 M115.6328125 0 C47.9061738863374 0, -19.820464727325202 0, -115.6328125 0 M-115.6328125 0 C-115.6328125 -10.357845078994501, -115.6328125 -20.715690157989002, -115.6328125 -42.75 M-115.6328125 0 C-115.6328125 -9.118494211566306, -115.6328125 -18.236988423132612, -115.6328125 -42.75" stroke="#9370DB" stroke-width="1.3" fill="none" stroke-dasharray="0 0"></path></g><g style="" class="row-rect-even"><path d="M-115.6328125 0 L115.6328125 0 L115.6328125 42.75 L-115.6328125 42.75" stroke="none" stroke-width="0" fill="hsl(240, 100%, 97.2745098039%)"></path><path d="M-115.6328125 0 C-59.89267190108986 0, -4.1525313021797245 0, 115.6328125 0 M-115.6328125 0 C-55.25813338499713 0, 5.11654573000574 0, 115.6328125 0 M115.6328125 0 C115.6328125 13.454973489502631, 115.6328125 26.909946979005262, 115.6328125 42.75 M115.6328125 0 C115.6328125 10.62246923873515, 115.6328125 21.2449384774703, 115.6328125 42.75 M115.6328125 42.75 C63.4966895135393 42.75, 11.360566527078603 42.75, -115.6328125 42.75 M115.6328125 42.75 C34.94050909664651 42.75, -45.751794306706984 42.75, -115.6328125 42.75 M-115.6328125 42.75 C-115.6328125 30.55471165056651, -115.6328125 18.35942330113302, -115.6328125 0 M-115.6328125 42.75 C-115.6328125 31.29865799155537, -115.6328125 19.84731598311074, -115.6328125 0" stroke="#9370DB" stroke-width="1.3" fill="none" stroke-dasharray="0 0"></path></g><g style="" class="row-rect-odd"><path d="M-115.6328125 42.75 L115.6328125 42.75 L115.6328125 85.5 L-115.6328125 85.5" stroke="none" stroke-width="0" fill="hsl(240, 100%, 100%)"></path><path d="M-115.6328125 42.75 C-39.76080942825381 42.75, 36.111193643492385 42.75, 115.6328125 42.75 M-115.6328125 42.75 C-40.42730974099619 42.75, 34.77819301800761 42.75, 115.6328125 42.75 M115.6328125 42.75 C115.6328125 58.770768423305796, 115.6328125 74.79153684661159, 115.6328125 85.5 M115.6328125 42.75 C115.6328125 55.353427741494116, 115.6328125 67.95685548298823, 115.6328125 85.5 M115.6328125 85.5 C53.88898757041632 85.5, -7.854837359167362 85.5, -115.6328125 85.5 M115.6328125 85.5 C44.94176688629567 85.5, -25.749278727408665 85.5, -115.6328125 85.5 M-115.6328125 85.5 C-115.6328125 71.31321791099793, -115.6328125 57.12643582199587, -115.6328125 42.75 M-115.6328125 85.5 C-115.6328125 75.25005256948779, -115.6328125 65.00010513897557, -115.6328125 42.75" stroke="#9370DB" stroke-width="1.3" fill="none" stroke-dasharray="0 0"></path></g><g class="label name" transform="translate(-29.2734375, -76.125)" style=""><foreignObject width="58.546875" height="24"><div xmlns="http://www.w3.org/1999/xhtml" style="display: table-cell; white-space: nowrap; line-height: 1.5; max-width: 159px; text-align: start;"><span class="nodeLabel"><p>VEHICLE</p></span></div></foreignObject></g><g class="label attribute-type" transform="translate(-103.1328125, -33.375)" style=""><foreignObject width="19.671875" height="24"><div xmlns="http://www.w3.org/1999/xhtml" style="display: table-cell; white-space: nowrap; line-height: 1.5; max-width: 120px; text-align: start;"><span class="nodeLabel"><p>int</p></span></div></foreignObject></g><g class="label attribute-name" transform="translate(-36.4921875, -33.375)" style=""><foreignObject width="73.484375" height="24"><div xmlns="http://www.w3.org/1999/xhtml" style="display: table-cell; white-space: nowrap; line-height: 1.5; max-width: 173px; text-align: start;"><span class="nodeLabel"><p>vehicle_id</p></span></div></foreignObject></g><g class="label attribute-keys" transform="translate(84.3984375, -33.375)" style=""><foreignObject width="18.734375" height="24"><div xmlns="http://www.w3.org/1999/xhtml" style="display: table-cell; white-space: nowrap; line-height: 1.5; max-width: 119px; text-align: start;"><span class="nodeLabel"><p>PK</p></span></div></foreignObject></g><g class="label attribute-comment" transform="translate(128.1328125, -33.375)" style=""><foreignObject width="0" height="0"><div xmlns="http://www.w3.org/1999/xhtml" style="display: table-cell; white-space: nowrap; line-height: 1.5; max-width: 100px; text-align: start;"><span class="nodeLabel"></span></div></foreignObject></g><g class="label attribute-type" transform="translate(-103.1328125, 9.375)" style=""><foreignObject width="41.640625" height="24"><div xmlns="http://www.w3.org/1999/xhtml" style="display: table-cell; white-space: nowrap; line-height: 1.5; max-width: 142px; text-align: start;"><span class="nodeLabel"><p>string</p></span></div></foreignObject></g><g class="label attribute-name" transform="translate(-36.4921875, 9.375)" style=""><foreignObject width="31.796875" height="24"><div xmlns="http://www.w3.org/1999/xhtml" style="display: table-cell; white-space: nowrap; line-height: 1.5; max-width: 132px; text-align: start;"><span class="nodeLabel"><p>type</p></span></div></foreignObject></g><g class="label attribute-keys" transform="translate(84.3984375, 9.375)" style=""><foreignObject width="0" height="0"><div xmlns="http://www.w3.org/1999/xhtml" style="display: table-cell; white-space: nowrap; line-height: 1.5; max-width: 100px; text-align: start;"><span class="nodeLabel"></span></div></foreignObject></g><g class="label attribute-comment" transform="translate(128.1328125, 9.375)" style=""><foreignObject width="0" height="0"><div xmlns="http://www.w3.org/1999/xhtml" style="display: table-cell; white-space: nowrap; line-height: 1.5; max-width: 100px; text-align: start;"><span class="nodeLabel"></span></div></foreignObject></g><g class="label attribute-type" transform="translate(-103.1328125, 52.125)" style=""><foreignObject width="41.640625" height="24"><div xmlns="http://www.w3.org/1999/xhtml" style="display: table-cell; white-space: nowrap; line-height: 1.5; max-width: 142px; text-align: start;"><span class="nodeLabel"><p>string</p></span></div></foreignObject></g><g class="label attribute-name" transform="translate(-36.4921875, 52.125)" style=""><foreignObject width="95.890625" height="24"><div xmlns="http://www.w3.org/1999/xhtml" style="display: table-cell; white-space: nowrap; line-height: 1.5; max-width: 196px; text-align: start;"><span class="nodeLabel"><p>license_plate</p></span></div></foreignObject></g><g class="label attribute-keys" transform="translate(84.3984375, 52.125)" style=""><foreignObject width="0" height="0"><div xmlns="http://www.w3.org/1999/xhtml" style="display: table-cell; white-space: nowrap; line-height: 1.5; max-width: 100px; text-align: start;"><span class="nodeLabel"></span></div></foreignObject></g><g class="label attribute-comment" transform="translate(128.1328125, 52.125)" style=""><foreignObject width="0" height="0"><div xmlns="http://www.w3.org/1999/xhtml" style="display: table-cell; white-space: nowrap; line-height: 1.5; max-width: 100px; text-align: start;"><span class="nodeLabel"></span></div></foreignObject></g><g class="divider"><path d="M-115.6328125 -42.75 C-32.503578037894286 -42.75, 50.62565642421143 -42.75, 115.6328125 -42.75 M-115.6328125 -42.75 C-68.663456083394 -42.75, -21.69409966678799 -42.75, 115.6328125 -42.75" stroke="#9370DB" stroke-width="1.3" fill="none" stroke-dasharray="0 0"></path></g><g class="divider"><path d="M-48.9921875 -42.75 C-48.9921875 -1.4918885845432754, -48.9921875 39.76622283091345, -48.9921875 85.5 M-48.9921875 -42.75 C-48.9921875 -14.091841828495596, -48.9921875 14.566316343008808, -48.9921875 85.5" stroke="#9370DB" stroke-width="1.3" fill="none" stroke-dasharray="0 0"></path></g><g class="divider"><path d="M71.8984375 -42.75 C71.8984375 -15.278014928882367, 71.8984375 12.193970142235266, 71.8984375 85.5 M71.8984375 -42.75 C71.8984375 -7.243898591239002, 71.8984375 28.262202817521995, 71.8984375 85.5" stroke="#9370DB" stroke-width="1.3" fill="none" stroke-dasharray="0 0"></path></g><g class="divider"><path d="M-115.6328125 -42.75 C-30.765261207214095 -42.75, 54.10229008557181 -42.75, 115.6328125 -42.75 M-115.6328125 -42.75 C-41.90696456397434 -42.75, 31.818883372051317 -42.75, 115.6328125 -42.75" stroke="#9370DB" stroke-width="1.3" fill="none" stroke-dasharray="0 0"></path></g></g><g class="node default" id="entity-EMPLOYEE-1" transform="translate(493.53125, 136.25)"><g style=""><path d="M-114.265625 -64.125 L114.265625 -64.125 L114.265625 64.125 L-114.265625 64.125" stroke="none" stroke-width="0" fill="#ECECFF"></path><path d="M-114.265625 -64.125 C-36.60698635319649 -64.125, 41.05165229360702 -64.125, 114.265625 -64.125 M-114.265625 -64.125 C-57.25471444026545 -64.125, -0.24380388053090485 -64.125, 114.265625 -64.125 M114.265625 -64.125 C114.265625 -35.929364165692135, 114.265625 -7.73372833138427, 114.265625 64.125 M114.265625 -64.125 C114.265625 -18.048796340910407, 114.265625 28.027407318179186, 114.265625 64.125 M114.265625 64.125 C30.98418655635757 64.125, -52.29725188728486 64.125, -114.265625 64.125 M114.265625 64.125 C58.77293717622989 64.125, 3.2802493524597764 64.125, -114.265625 64.125 M-114.265625 64.125 C-114.265625 13.696037872847924, -114.265625 -36.73292425430415, -114.265625 -64.125 M-114.265625 64.125 C-114.265625 17.87922823086823, -114.265625 -28.366543538263542, -114.265625 -64.125" stroke="#9370DB" stroke-width="1.3" fill="none" stroke-dasharray="0 0"></path></g><g style="" class="row-rect-odd"><path d="M-114.265625 -21.375 L114.265625 -21.375 L114.265625 21.375 L-114.265625 21.375" stroke="none" stroke-width="0" fill="hsl(240, 100%, 100%)"></path><path d="M-114.265625 -21.375 C-49.09683302564905 -21.375, 16.071958948701905 -21.375, 114.265625 -21.375 M-114.265625 -21.375 C-47.49084166542441 -21.375, 19.283941669151176 -21.375, 114.265625 -21.375 M114.265625 -21.375 C114.265625 -7.153820556025341, 114.265625 7.067358887949318, 114.265625 21.375 M114.265625 -21.375 C114.265625 -7.772134496124378, 114.265625 5.830731007751243, 114.265625 21.375 M114.265625 21.375 C62.32253038837172 21.375, 10.379435776743435 21.375, -114.265625 21.375 M114.265625 21.375 C59.9638506783951 21.375, 5.662076356790195 21.375, -114.265625 21.375 M-114.265625 21.375 C-114.265625 11.743764439198111, -114.265625 2.1125288783962226, -114.265625 -21.375 M-114.265625 21.375 C-114.265625 5.212737569788612, -114.265625 -10.949524860422777, -114.265625 -21.375" stroke="#9370DB" stroke-width="1.3" fill="none" stroke-dasharray="0 0"></path></g><g style="" class="row-rect-even"><path d="M-114.265625 21.375 L114.265625 21.375 L114.265625 64.125 L-114.265625 64.125" stroke="none" stroke-width="0" fill="hsl(240, 100%, 97.2745098039%)"></path><path d="M-114.265625 21.375 C-57.66609989549819 21.375, -1.066574790996384 21.375, 114.265625 21.375 M-114.265625 21.375 C-35.611936406421194 21.375, 43.04175218715761 21.375, 114.265625 21.375 M114.265625 21.375 C114.265625 33.54976550230954, 114.265625 45.724531004619074, 114.265625 64.125 M114.265625 21.375 C114.265625 31.390263883227163, 114.265625 41.40552776645433, 114.265625 64.125 M114.265625 64.125 C55.66836936506697 64.125, -2.928886269866055 64.125, -114.265625 64.125 M114.265625 64.125 C30.73222687722614 64.125, -52.80117124554772 64.125, -114.265625 64.125 M-114.265625 64.125 C-114.265625 51.561819272310494, -114.265625 38.99863854462099, -114.265625 21.375 M-114.265625 64.125 C-114.265625 52.146420983172476, -114.265625 40.16784196634495, -114.265625 21.375" stroke="#9370DB" stroke-width="1.3" fill="none" stroke-dasharray="0 0"></path></g><g class="label name" transform="translate(-37.03125, -54.75)" style=""><foreignObject width="74.0625" height="24"><div xmlns="http://www.w3.org/1999/xhtml" style="display: table-cell; white-space: nowrap; line-height: 1.5; max-width: 174px; text-align: start;"><span class="nodeLabel"><p>EMPLOYEE</p></span></div></foreignObject></g><g class="label attribute-type" transform="translate(-101.765625, -12)" style=""><foreignObject width="19.671875" height="24"><div xmlns="http://www.w3.org/1999/xhtml" style="display: table-cell; white-space: nowrap; line-height: 1.5; max-width: 120px; text-align: start;"><span class="nodeLabel"><p>int</p></span></div></foreignObject></g><g class="label attribute-name" transform="translate(-35.125, -12)" style=""><foreignObject width="93.15625" height="24"><div xmlns="http://www.w3.org/1999/xhtml" style="display: table-cell; white-space: nowrap; line-height: 1.5; max-width: 193px; text-align: start;"><span class="nodeLabel"><p>employee_id</p></span></div></foreignObject></g><g class="label attribute-keys" transform="translate(83.03125, -12)" style=""><foreignObject width="18.734375" height="24"><div xmlns="http://www.w3.org/1999/xhtml" style="display: table-cell; white-space: nowrap; line-height: 1.5; max-width: 119px; text-align: start;"><span class="nodeLabel"><p>PK</p></span></div></foreignObject></g><g class="label attribute-comment" transform="translate(126.765625, -12)" style=""><foreignObject width="0" height="0"><div xmlns="http://www.w3.org/1999/xhtml" style="display: table-cell; white-space: nowrap; line-height: 1.5; max-width: 100px; text-align: start;"><span class="nodeLabel"></span></div></foreignObject></g><g class="label attribute-type" transform="translate(-101.765625, 30.75)" style=""><foreignObject width="41.640625" height="24"><div xmlns="http://www.w3.org/1999/xhtml" style="display: table-cell; white-space: nowrap; line-height: 1.5; max-width: 142px; text-align: start;"><span class="nodeLabel"><p>string</p></span></div></foreignObject></g><g class="label attribute-name" transform="translate(-35.125, 30.75)" style=""><foreignObject width="49.40625" height="24"><div xmlns="http://www.w3.org/1999/xhtml" style="display: table-cell; white-space: nowrap; line-height: 1.5; max-width: 149px; text-align: start;"><span class="nodeLabel"><p>initials</p></span></div></foreignObject></g><g class="label attribute-keys" transform="translate(83.03125, 30.75)" style=""><foreignObject width="0" height="0"><div xmlns="http://www.w3.org/1999/xhtml" style="display: table-cell; white-space: nowrap; line-height: 1.5; max-width: 100px; text-align: start;"><span class="nodeLabel"></span></div></foreignObject></g><g class="label attribute-comment" transform="translate(126.765625, 30.75)" style=""><foreignObject width="0" height="0"><div xmlns="http://www.w3.org/1999/xhtml" style="display: table-cell; white-space: nowrap; line-height: 1.5; max-width: 100px; text-align: start;"><span class="nodeLabel"></span></div></foreignObject></g><g class="divider"><path d="M-114.265625 -21.375 C-66.95015768922994 -21.375, -19.63469037845988 -21.375, 114.265625 -21.375 M-114.265625 -21.375 C-36.399139831403616 -21.375, 41.46734533719277 -21.375, 114.265625 -21.375" stroke="#9370DB" stroke-width="1.3" fill="none" stroke-dasharray="0 0"></path></g><g class="divider"><path d="M-47.625 -21.375 C-47.625 0.736167958796603, -47.625 22.847335917593206, -47.625 64.125 M-47.625 -21.375 C-47.625 2.6619772014330287, -47.625 26.698954402866057, -47.625 64.125" stroke="#9370DB" stroke-width="1.3" fill="none" stroke-dasharray="0 0"></path></g><g class="divider"><path d="M70.53125 -21.375 C70.53125 6.774236361597087, 70.53125 34.92347272319417, 70.53125 64.125 M70.53125 -21.375 C70.53125 4.082806938307456, 70.53125 29.540613876614913, 70.53125 64.125" stroke="#9370DB" stroke-width="1.3" fill="none" stroke-dasharray="0 0"></path></g><g class="divider"><path d="M-114.265625 -21.375 C-26.987701096968635 -21.375, 60.29022280606273 -21.375, 114.265625 -21.375 M-114.265625 -21.375 C-53.95638977970567 -21.375, 6.352845440588666 -21.375, 114.265625 -21.375" stroke="#9370DB" stroke-width="1.3" fill="none" stroke-dasharray="0 0"></path></g></g><g class="node default" id="entity-BOOKING-2" transform="translate(857.5078125, 136.25)"><g style=""><path d="M-109.7109375 -128.25 L109.7109375 -128.25 L109.7109375 128.25 L-109.7109375 128.25" stroke="none" stroke-width="0" fill="#ECECFF"></path><path d="M-109.7109375 -128.25 C-45.17831250831894 -128.25, 19.354312483362122 -128.25, 109.7109375 -128.25 M-109.7109375 -128.25 C-23.09212924729374 -128.25, 63.52667900541252 -128.25, 109.7109375 -128.25 M109.7109375 -128.25 C109.7109375 -42.74985632594017, 109.7109375 42.750287348119656, 109.7109375 128.25 M109.7109375 -128.25 C109.7109375 -64.72828014424022, 109.7109375 -1.2065602884804463, 109.7109375 128.25 M109.7109375 128.25 C56.10088706607961 128.25, 2.4908366321592155 128.25, -109.7109375 128.25 M109.7109375 128.25 C57.21642648293769 128.25, 4.721915465875384 128.25, -109.7109375 128.25 M-109.7109375 128.25 C-109.7109375 42.69640047506704, -109.7109375 -42.857199049865926, -109.7109375 -128.25 M-109.7109375 128.25 C-109.7109375 72.33698744703761, -109.7109375 16.42397489407523, -109.7109375 -128.25" stroke="#9370DB" stroke-width="1.3" fill="none" stroke-dasharray="0 0"></path></g><g style="" class="row-rect-odd"><path d="M-109.7109375 -85.5 L109.7109375 -85.5 L109.7109375 -42.75 L-109.7109375 -42.75" stroke="none" stroke-width="0" fill="hsl(240, 100%, 100%)"></path><path d="M-109.7109375 -85.5 C-40.86309751365728 -85.5, 27.98474247268544 -85.5, 109.7109375 -85.5 M-109.7109375 -85.5 C-51.88613884168958 -85.5, 5.9386598166208415 -85.5, 109.7109375 -85.5 M109.7109375 -85.5 C109.7109375 -75.86403917097708, 109.7109375 -66.22807834195416, 109.7109375 -42.75 M109.7109375 -85.5 C109.7109375 -69.8871272459008, 109.7109375 -54.2742544918016, 109.7109375 -42.75 M109.7109375 -42.75 C61.491625123929225 -42.75, 13.27231274785845 -42.75, -109.7109375 -42.75 M109.7109375 -42.75 C61.38773649097124 -42.75, 13.064535481942485 -42.75, -109.7109375 -42.75 M-109.7109375 -42.75 C-109.7109375 -55.552585243641914, -109.7109375 -68.35517048728383, -109.7109375 -85.5 M-109.7109375 -42.75 C-109.7109375 -52.001160839015725, -109.7109375 -61.25232167803145, -109.7109375 -85.5" stroke="#9370DB" stroke-width="1.3" fill="none" stroke-dasharray="0 0"></path></g><g style="" class="row-rect-even"><path d="M-109.7109375 -42.75 L109.7109375 -42.75 L109.7109375 0 L-109.7109375 0" stroke="none" stroke-width="0" fill="hsl(240, 100%, 97.2745098039%)"></path><path d="M-109.7109375 -42.75 C-56.42693547566469 -42.75, -3.142933451329384 -42.75, 109.7109375 -42.75 M-109.7109375 -42.75 C-49.340416167662305 -42.75, 11.03010516467539 -42.75, 109.7109375 -42.75 M109.7109375 -42.75 C109.7109375 -26.767100191650293, 109.7109375 -10.784200383300583, 109.7109375 0 M109.7109375 -42.75 C109.7109375 -33.71244736505262, 109.7109375 -24.674894730105233, 109.7109375 0 M109.7109375 0 C24.4362961171377 0, -60.8383452657246 0, -109.7109375 0 M109.7109375 0 C55.186386653421444 0, 0.6618358068428876 0, -109.7109375 0 M-109.7109375 0 C-109.7109375 -13.434428135920061, -109.7109375 -26.868856271840123, -109.7109375 -42.75 M-109.7109375 0 C-109.7109375 -8.881872586407917, -109.7109375 -17.763745172815835, -109.7109375 -42.75" stroke="#9370DB" stroke-width="1.3" fill="none" stroke-dasharray="0 0"></path></g><g style="" class="row-rect-odd"><path d="M-109.7109375 0 L109.7109375 0 L109.7109375 42.75 L-109.7109375 42.75" stroke="none" stroke-width="0" fill="hsl(240, 100%, 100%)"></path><path d="M-109.7109375 0 C-26.543767231400366 0, 56.62340303719927 0, 109.7109375 0 M-109.7109375 0 C-40.66831027660676 0, 28.37431694678648 0, 109.7109375 0 M109.7109375 0 C109.7109375 15.771063398702358, 109.7109375 31.542126797404716, 109.7109375 42.75 M109.7109375 0 C109.7109375 10.715777709962595, 109.7109375 21.43155541992519, 109.7109375 42.75 M109.7109375 42.75 C38.191958262776254 42.75, -33.32702097444749 42.75, -109.7109375 42.75 M109.7109375 42.75 C49.62299754218338 42.75, -10.464942415633246 42.75, -109.7109375 42.75 M-109.7109375 42.75 C-109.7109375 33.39342045749017, -109.7109375 24.036840914980345, -109.7109375 0 M-109.7109375 42.75 C-109.7109375 28.31762205577097, -109.7109375 13.88524411154194, -109.7109375 0" stroke="#9370DB" stroke-width="1.3" fill="none" stroke-dasharray="0 0"></path></g><g style="" class="row-rect-even"><path d="M-109.7109375 42.75 L109.7109375 42.75 L109.7109375 85.5 L-109.7109375 85.5" stroke="none" stroke-width="0" fill="hsl(240, 100%, 97.2745098039%)"></path><path d="M-109.7109375 42.75 C-33.66565094949328 42.75, 42.37963560101343 42.75, 109.7109375 42.75 M-109.7109375 42.75 C-35.50215703931211 42.75, 38.70662342137578 42.75, 109.7109375 42.75 M109.7109375 42.75 C109.7109375 58.767620505776456, 109.7109375 74.78524101155291, 109.7109375 85.5 M109.7109375 42.75 C109.7109375 59.70304833760545, 109.7109375 76.6560966752109, 109.7109375 85.5 M109.7109375 85.5 C59.37544701497535 85.5, 9.0399565299507 85.5, -109.7109375 85.5 M109.7109375 85.5 C58.317938878706826 85.5, 6.9249402574136525 85.5, -109.7109375 85.5 M-109.7109375 85.5 C-109.7109375 70.79053577265822, -109.7109375 56.08107154531644, -109.7109375 42.75 M-109.7109375 85.5 C-109.7109375 76.21646621146688, -109.7109375 66.93293242293376, -109.7109375 42.75" stroke="#9370DB" stroke-width="1.3" fill="none" stroke-dasharray="0 0"></path></g><g style="" class="row-rect-odd"><path d="M-109.7109375 85.5 L109.7109375 85.5 L109.7109375 128.25 L-109.7109375 128.25" stroke="none" stroke-width="0" fill="hsl(240, 100%, 100%)"></path><path d="M-109.7109375 85.5 C-48.99140430434071 85.5, 11.728128891318576 85.5, 109.7109375 85.5 M-109.7109375 85.5 C-52.297266878273255 85.5, 5.116403743453489 85.5, 109.7109375 85.5 M109.7109375 85.5 C109.7109375 99.88490044085242, 109.7109375 114.26980088170482, 109.7109375 128.25 M109.7109375 85.5 C109.7109375 96.56953016300992, 109.7109375 107.63906032601983, 109.7109375 128.25 M109.7109375 128.25 C41.12733141903331 128.25, -27.456274661933378 128.25, -109.7109375 128.25 M109.7109375 128.25 C58.26161952815943 128.25, 6.812301556318857 128.25, -109.7109375 128.25 M-109.7109375 128.25 C-109.7109375 115.06729374649682, -109.7109375 101.88458749299363, -109.7109375 85.5 M-109.7109375 128.25 C-109.7109375 111.81686902506496, -109.7109375 95.3837380501299, -109.7109375 85.5" stroke="#9370DB" stroke-width="1.3" fill="none" stroke-dasharray="0 0"></path></g><g class="label name" transform="translate(-33.5234375, -118.875)" style=""><foreignObject width="67.046875" height="24"><div xmlns="http://www.w3.org/1999/xhtml" style="display: table-cell; white-space: nowrap; line-height: 1.5; max-width: 167px; text-align: start;"><span class="nodeLabel"><p>BOOKING</p></span></div></foreignObject></g><g class="label attribute-type" transform="translate(-97.2109375, -76.125)" style=""><foreignObject width="19.671875" height="24"><div xmlns="http://www.w3.org/1999/xhtml" style="display: table-cell; white-space: nowrap; line-height: 1.5; max-width: 120px; text-align: start;"><span class="nodeLabel"><p>int</p></span></div></foreignObject></g><g class="label attribute-name" transform="translate(-39.6796875, -76.125)" style=""><foreignObject width="81.0625" height="24"><div xmlns="http://www.w3.org/1999/xhtml" style="display: table-cell; white-space: nowrap; line-height: 1.5; max-width: 181px; text-align: start;"><span class="nodeLabel"><p>booking_id</p></span></div></foreignObject></g><g class="label attribute-keys" transform="translate(78.4765625, -76.125)" style=""><foreignObject width="18.734375" height="24"><div xmlns="http://www.w3.org/1999/xhtml" style="display: table-cell; white-space: nowrap; line-height: 1.5; max-width: 119px; text-align: start;"><span class="nodeLabel"><p>PK</p></span></div></foreignObject></g><g class="label attribute-comment" transform="translate(122.2109375, -76.125)" style=""><foreignObject width="0" height="0"><div xmlns="http://www.w3.org/1999/xhtml" style="display: table-cell; white-space: nowrap; line-height: 1.5; max-width: 100px; text-align: start;"><span class="nodeLabel"></span></div></foreignObject></g><g class="label attribute-type" transform="translate(-97.2109375, -33.375)" style=""><foreignObject width="19.671875" height="24"><div xmlns="http://www.w3.org/1999/xhtml" style="display: table-cell; white-space: nowrap; line-height: 1.5; max-width: 120px; text-align: start;"><span class="nodeLabel"><p>int</p></span></div></foreignObject></g><g class="label attribute-name" transform="translate(-39.6796875, -33.375)" style=""><foreignObject width="93.15625" height="24"><div xmlns="http://www.w3.org/1999/xhtml" style="display: table-cell; white-space: nowrap; line-height: 1.5; max-width: 193px; text-align: start;"><span class="nodeLabel"><p>employee_id</p></span></div></foreignObject></g><g class="label attribute-keys" transform="translate(78.4765625, -33.375)" style=""><foreignObject width="17.28125" height="24"><div xmlns="http://www.w3.org/1999/xhtml" style="display: table-cell; white-space: nowrap; line-height: 1.5; max-width: 118px; text-align: start;"><span class="nodeLabel"><p>FK</p></span></div></foreignObject></g><g class="label attribute-comment" transform="translate(122.2109375, -33.375)" style=""><foreignObject width="0" height="0"><div xmlns="http://www.w3.org/1999/xhtml" style="display: table-cell; white-space: nowrap; line-height: 1.5; max-width: 100px; text-align: start;"><span class="nodeLabel"></span></div></foreignObject></g><g class="label attribute-type" transform="translate(-97.2109375, 9.375)" style=""><foreignObject width="19.671875" height="24"><div xmlns="http://www.w3.org/1999/xhtml" style="display: table-cell; white-space: nowrap; line-height: 1.5; max-width: 120px; text-align: start;"><span class="nodeLabel"><p>int</p></span></div></foreignObject></g><g class="label attribute-name" transform="translate(-39.6796875, 9.375)" style=""><foreignObject width="73.484375" height="24"><div xmlns="http://www.w3.org/1999/xhtml" style="display: table-cell; white-space: nowrap; line-height: 1.5; max-width: 173px; text-align: start;"><span class="nodeLabel"><p>vehicle_id</p></span></div></foreignObject></g><g class="label attribute-keys" transform="translate(78.4765625, 9.375)" style=""><foreignObject width="17.28125" height="24"><div xmlns="http://www.w3.org/1999/xhtml" style="display: table-cell; white-space: nowrap; line-height: 1.5; max-width: 118px; text-align: start;"><span class="nodeLabel"><p>FK</p></span></div></foreignObject></g><g class="label attribute-comment" transform="translate(122.2109375, 9.375)" style=""><foreignObject width="0" height="0"><div xmlns="http://www.w3.org/1999/xhtml" style="display: table-cell; white-space: nowrap; line-height: 1.5; max-width: 100px; text-align: start;"><span class="nodeLabel"></span></div></foreignObject></g><g class="label attribute-type" transform="translate(-97.2109375, 52.125)" style=""><foreignObject width="32.53125" height="24"><div xmlns="http://www.w3.org/1999/xhtml" style="display: table-cell; white-space: nowrap; line-height: 1.5; max-width: 133px; text-align: start;"><span class="nodeLabel"><p>date</p></span></div></foreignObject></g><g class="label attribute-name" transform="translate(-39.6796875, 52.125)" style=""><foreignObject width="33.796875" height="24"><div xmlns="http://www.w3.org/1999/xhtml" style="display: table-cell; white-space: nowrap; line-height: 1.5; max-width: 134px; text-align: start;"><span class="nodeLabel"><p>start</p></span></div></foreignObject></g><g class="label attribute-keys" transform="translate(78.4765625, 52.125)" style=""><foreignObject width="0" height="0"><div xmlns="http://www.w3.org/1999/xhtml" style="display: table-cell; white-space: nowrap; line-height: 1.5; max-width: 100px; text-align: start;"><span class="nodeLabel"></span></div></foreignObject></g><g class="label attribute-comment" transform="translate(122.2109375, 52.125)" style=""><foreignObject width="0" height="0"><div xmlns="http://www.w3.org/1999/xhtml" style="display: table-cell; white-space: nowrap; line-height: 1.5; max-width: 100px; text-align: start;"><span class="nodeLabel"></span></div></foreignObject></g><g class="label attribute-type" transform="translate(-97.2109375, 94.875)" style=""><foreignObject width="32.53125" height="24"><div xmlns="http://www.w3.org/1999/xhtml" style="display: table-cell; white-space: nowrap; line-height: 1.5; max-width: 133px; text-align: start;"><span class="nodeLabel"><p>date</p></span></div></foreignObject></g><g class="label attribute-name" transform="translate(-39.6796875, 94.875)" style=""><foreignObject width="27.671875" height="24"><div xmlns="http://www.w3.org/1999/xhtml" style="display: table-cell; white-space: nowrap; line-height: 1.5; max-width: 128px; text-align: start;"><span class="nodeLabel"><p>end</p></span></div></foreignObject></g><g class="label attribute-keys" transform="translate(78.4765625, 94.875)" style=""><foreignObject width="0" height="0"><div xmlns="http://www.w3.org/1999/xhtml" style="display: table-cell; white-space: nowrap; line-height: 1.5; max-width: 100px; text-align: start;"><span class="nodeLabel"></span></div></foreignObject></g><g class="label attribute-comment" transform="translate(122.2109375, 94.875)" style=""><foreignObject width="0" height="0"><div xmlns="http://www.w3.org/1999/xhtml" style="display: table-cell; white-space: nowrap; line-height: 1.5; max-width: 100px; text-align: start;"><span class="nodeLabel"></span></div></foreignObject></g><g class="divider"><path d="M-109.7109375 -85.5 C-48.93303553107626 -85.5, 11.844866437847486 -85.5, 109.7109375 -85.5 M-109.7109375 -85.5 C-59.89074526534231 -85.5, -10.070553030684621 -85.5, 109.7109375 -85.5" stroke="#9370DB" stroke-width="1.3" fill="none" stroke-dasharray="0 0"></path></g><g class="divider"><path d="M-52.1796875 -85.5 C-52.1796875 -28.983863970097637, -52.1796875 27.532272059804725, -52.1796875 128.25 M-52.1796875 -85.5 C-52.1796875 -18.68923489852149, -52.1796875 48.12153020295702, -52.1796875 128.25" stroke="#9370DB" stroke-width="1.3" fill="none" stroke-dasharray="0 0"></path></g><g class="divider"><path d="M65.9765625 -85.5 C65.9765625 -35.83059236677851, 65.9765625 13.838815266442978, 65.9765625 128.25 M65.9765625 -85.5 C65.9765625 -18.870585678748967, 65.9765625 47.75882864250207, 65.9765625 128.25" stroke="#9370DB" stroke-width="1.3" fill="none" stroke-dasharray="0 0"></path></g><g class="divider"><path d="M-109.7109375 -85.5 C-50.979228492674494 -85.5, 7.752480514651012 -85.5, 109.7109375 -85.5 M-109.7109375 -85.5 C-47.73662888559114 -85.5, 14.237679728817724 -85.5, 109.7109375 -85.5" stroke="#9370DB" stroke-width="1.3" fill="none" stroke-dasharray="0 0"></path></g></g></g></g></g></svg>